<svg width="16" height="16" viewBox="0 0 16 16" fill="none" xmlns="http://www.w3.org/2000/svg">
<path d="M12.474 3.80682C12.412 3.74433 12.3382 3.69474 12.257 3.66089C12.1758 3.62704 12.0886 3.60962 12.0006 3.60962C11.9126 3.60962 11.8255 3.62704 11.7442 3.66089C11.663 3.69474 11.5893 3.74433 11.5273 3.80682L6.56062 8.78015L4.47395 6.68682C4.4096 6.62466 4.33364 6.57578 4.25041 6.54298C4.16717 6.51018 4.07829 6.49409 3.98883 6.49564C3.89938 6.49719 3.81111 6.51634 3.72905 6.552C3.647 6.58766 3.57278 6.63914 3.51062 6.70348C3.44846 6.76783 3.39958 6.84379 3.36678 6.92703C3.33398 7.01027 3.31789 7.09915 3.31944 7.1886C3.32099 7.27806 3.34014 7.36633 3.3758 7.44838C3.41146 7.53043 3.46294 7.60466 3.52728 7.66682L6.08728 10.2268C6.14926 10.2893 6.22299 10.3389 6.30423 10.3727C6.38547 10.4066 6.47261 10.424 6.56062 10.424C6.64863 10.424 6.73576 10.4066 6.817 10.3727C6.89824 10.3389 6.97198 10.2893 7.03395 10.2268L12.474 4.78682C12.5416 4.72439 12.5956 4.64862 12.6326 4.56429C12.6695 4.47996 12.6886 4.38889 12.6886 4.29682C12.6886 4.20475 12.6695 4.11368 12.6326 4.02935C12.5956 3.94501 12.5416 3.86925 12.474 3.80682Z" fill="#4963F1"/>
</svg>
