<svg width="16" height="16" viewBox="0 0 16 16" fill="none" xmlns="http://www.w3.org/2000/svg">
<path d="M13.4403 3.33328C12.7337 2.62475 11.7969 2.19231 10.7992 2.11406C9.80159 2.03581 8.80886 2.31692 8.00035 2.90661C7.15212 2.27571 6.09634 1.98962 5.04563 2.10597C3.99491 2.22232 3.02731 2.73247 2.33766 3.53367C1.64802 4.33488 1.28756 5.36763 1.32888 6.42396C1.3702 7.48029 1.81023 8.48173 2.56035 9.22661L6.70035 13.3733C7.04703 13.7145 7.51394 13.9057 8.00035 13.9057C8.48676 13.9057 8.95367 13.7145 9.30035 13.3733L13.4403 9.22661C14.2187 8.44346 14.6556 7.38413 14.6556 6.27995C14.6556 5.17577 14.2187 4.11644 13.4403 3.33328ZM12.5003 8.30661L8.36035 12.4466C8.31324 12.4942 8.25716 12.5319 8.19537 12.5577C8.13358 12.5835 8.0673 12.5968 8.00035 12.5968C7.9334 12.5968 7.86711 12.5835 7.80532 12.5577C7.74353 12.5319 7.68746 12.4942 7.64035 12.4466L3.50035 8.28661C2.97752 7.75218 2.68475 7.03426 2.68475 6.28661C2.68475 5.53897 2.97752 4.82105 3.50035 4.28661C4.03312 3.76061 4.75166 3.46566 5.50035 3.46566C6.24903 3.46566 6.96758 3.76061 7.50035 4.28661C7.56232 4.3491 7.63606 4.3987 7.7173 4.43254C7.79853 4.46639 7.88567 4.48381 7.97368 4.48381C8.06169 4.48381 8.14883 4.46639 8.23006 4.43254C8.3113 4.3987 8.38504 4.3491 8.44701 4.28661C8.97978 3.76061 9.69833 3.46566 10.447 3.46566C11.1957 3.46566 11.9142 3.76061 12.447 4.28661C12.977 4.81405 13.2794 5.52807 13.2894 6.27574C13.2993 7.0234 13.0161 7.74524 12.5003 8.28661V8.30661Z" fill="#5F6C86"/>
</svg>
