<svg width="24" height="24" viewBox="0 0 24 24" fill="none" xmlns="http://www.w3.org/2000/svg">
<path d="M9.70994 6.28994C9.61698 6.19621 9.50637 6.12182 9.38452 6.07105C9.26266 6.02028 9.13195 5.99414 8.99994 5.99414C8.86793 5.99414 8.73722 6.02028 8.61536 6.07105C8.4935 6.12182 8.3829 6.19621 8.28994 6.28994L3.28994 11.2899C3.19621 11.3829 3.12182 11.4935 3.07105 11.6154C3.02028 11.7372 2.99414 11.8679 2.99414 11.9999C2.99414 12.132 3.02028 12.2627 3.07105 12.3845C3.12182 12.5064 3.19621 12.617 3.28994 12.7099L8.28994 17.7099C8.3829 17.8037 8.4935 17.8781 8.61536 17.9288C8.73722 17.9796 8.86793 18.0057 8.99994 18.0057C9.13195 18.0057 9.26266 17.9796 9.38452 17.9288C9.50637 17.8781 9.61698 17.8037 9.70994 17.7099C9.80367 17.617 9.87806 17.5064 9.92883 17.3845C9.9796 17.2627 10.0057 17.132 10.0057 16.9999C10.0057 16.8679 9.9796 16.7372 9.92883 16.6154C9.87806 16.4935 9.80367 16.3829 9.70994 16.2899L5.40994 11.9999L9.70994 7.70994C9.80367 7.61698 9.87806 7.50638 9.92883 7.38452C9.9796 7.26266 10.0057 7.13195 10.0057 6.99994C10.0057 6.86793 9.9796 6.73722 9.92883 6.61536C9.87806 6.4935 9.80367 6.3829 9.70994 6.28994ZM20.7099 11.2899L15.7099 6.28994C15.6167 6.1967 15.506 6.12274 15.3842 6.07228C15.2624 6.02182 15.1318 5.99585 14.9999 5.99585C14.7336 5.99585 14.4782 6.10164 14.2899 6.28994C14.1967 6.38318 14.1227 6.49387 14.0723 6.61569C14.0218 6.73751 13.9958 6.86808 13.9958 6.99994C13.9958 7.26624 14.1016 7.52164 14.2899 7.70994L18.5899 11.9999L14.2899 16.2899C14.1962 16.3829 14.1218 16.4935 14.071 16.6154C14.0203 16.7372 13.9941 16.8679 13.9941 16.9999C13.9941 17.132 14.0203 17.2627 14.071 17.3845C14.1218 17.5064 14.1962 17.617 14.2899 17.7099C14.3829 17.8037 14.4935 17.8781 14.6154 17.9288C14.7372 17.9796 14.8679 18.0057 14.9999 18.0057C15.132 18.0057 15.2627 17.9796 15.3845 17.9288C15.5064 17.8781 15.617 17.8037 15.7099 17.7099L20.7099 12.7099C20.8037 12.617 20.8781 12.5064 20.9288 12.3845C20.9796 12.2627 21.0057 12.132 21.0057 11.9999C21.0057 11.8679 20.9796 11.7372 20.9288 11.6154C20.8781 11.4935 20.8037 11.3829 20.7099 11.2899Z" fill="#999999"/>
</svg>
