<svg width="16" height="16" viewBox="0 0 16 16" fill="none" xmlns="http://www.w3.org/2000/svg">
<path d="M8.00017 1.33301C6.68162 1.33301 5.39269 1.724 4.29636 2.45654C3.20004 3.18909 2.34555 4.23028 1.84097 5.44845C1.33638 6.66663 1.20436 8.00707 1.4616 9.30028C1.71883 10.5935 2.35377 11.7814 3.28612 12.7137C4.21847 13.6461 5.40636 14.281 6.69956 14.5382C7.99277 14.7955 9.33322 14.6635 10.5514 14.1589C11.7696 13.6543 12.8108 12.7998 13.5433 11.7035C14.2758 10.6071 14.6668 9.31822 14.6668 7.99967C14.6668 7.12419 14.4944 6.25729 14.1594 5.44845C13.8243 4.63961 13.3333 3.90468 12.7142 3.28562C12.0952 2.66656 11.3602 2.1755 10.5514 1.84047C9.74256 1.50544 8.87565 1.333 8.00017 1.33301ZM8.00017 11.3372C7.86831 11.3372 7.73942 11.2981 7.62979 11.2248C7.52015 11.1516 7.4347 11.0474 7.38425 10.9256C7.33379 10.8038 7.32059 10.6698 7.34631 10.5404C7.37203 10.4111 7.43553 10.2923 7.52876 10.1991C7.622 10.1059 7.74079 10.0424 7.87011 10.0166C7.99943 9.99091 8.13347 10.0041 8.25529 10.0546C8.37711 10.105 8.48123 10.1905 8.55448 10.3001C8.62773 10.4097 8.66683 10.5386 8.66683 10.6705C8.66683 10.8473 8.59659 11.0169 8.47157 11.1419C8.34655 11.2669 8.17698 11.3372 8.00017 11.3372ZM8.66683 8.54345V8.66634C8.66683 8.84315 8.59659 9.01272 8.47157 9.13775C8.34655 9.26277 8.17698 9.33301 8.00017 9.33301C7.82336 9.33301 7.65379 9.26277 7.52876 9.13775C7.40374 9.01272 7.3335 8.84315 7.3335 8.66634V7.99967C7.33345 7.91211 7.35066 7.8254 7.38414 7.74449C7.41763 7.66359 7.46673 7.59007 7.52865 7.52816C7.59057 7.46624 7.66408 7.41714 7.74498 7.38365C7.82589 7.35017 7.9126 7.33296 8.00017 7.33301C8.11721 7.33294 8.23217 7.30206 8.33349 7.24347C8.43481 7.18489 8.51892 7.10066 8.57737 6.99925C8.63581 6.89785 8.66653 6.78285 8.66644 6.66581C8.66635 6.54877 8.63544 6.43381 8.57683 6.33251C8.51823 6.2312 8.43398 6.1471 8.33256 6.08868C8.23115 6.03025 8.11614 5.99956 7.9991 5.99968C7.88206 5.99979 7.76711 6.03072 7.66582 6.08935C7.56452 6.14798 7.48044 6.23225 7.42204 6.33367C7.33346 6.48666 7.18773 6.59819 7.01692 6.64372C6.84611 6.68926 6.6642 6.66508 6.51122 6.5765C6.35823 6.48792 6.24671 6.34219 6.20117 6.17138C6.15563 6.00056 6.17981 5.81866 6.26839 5.66567C6.42866 5.38601 6.6542 5.14927 6.92577 4.97565C7.19735 4.80203 7.5069 4.69669 7.828 4.66861C8.1491 4.64054 8.47224 4.69056 8.76982 4.81442C9.0674 4.93827 9.33061 5.13228 9.53697 5.37989C9.74334 5.6275 9.88674 5.92136 9.95494 6.23639C10.0231 6.55142 10.0141 6.87827 9.92863 7.18906C9.84314 7.49985 9.68374 7.78535 9.46403 8.02119C9.24431 8.25703 8.9708 8.43621 8.66683 8.54345Z" fill="#BAC1CE"/>
</svg>
