<svg width="24" height="24" viewBox="0 0 24 24" fill="none" xmlns="http://www.w3.org/2000/svg">
<path d="M22.4508 12.8859C19.9734 10.0313 16.55 6.75 12 6.75C10.1625 6.75 8.47813 7.26953 6.70078 8.37969C5.20234 9.32031 3.66562 10.6437 1.55469 12.8203L1.5 12.875L1.86641 13.2523C4.87969 16.3367 7.48281 19 12 19C13.9961 19 15.932 18.3492 17.9172 17.0094C19.607 15.8664 21.0453 14.4172 22.1992 13.2469L22.5 12.9461L22.4508 12.8859ZM12 17.25C9.58828 17.25 7.625 15.2867 7.625 12.875C7.625 10.4633 9.58828 8.5 12 8.5C14.4117 8.5 16.375 10.4633 16.375 12.875C16.375 15.2867 14.4117 17.25 12 17.25Z" fill="white"/>
<path d="M11.6937 11.2781C11.6937 10.9008 11.8031 10.5453 11.9945 10.25C10.5453 10.25 9.375 11.4313 9.375 12.8859C9.375 14.3406 10.5508 15.5164 11.9945 15.5164C13.4383 15.5164 14.6195 14.3406 14.6195 12.8859C14.3242 13.0773 13.9688 13.1867 13.5914 13.1867C12.5469 13.1813 11.6937 12.3281 11.6937 11.2781Z" fill="white"/>
</svg>
