<svg width="51" height="86" viewBox="0 0 51 86" fill="none" xmlns="http://www.w3.org/2000/svg">
<rect x="0.5" y="0.5" width="50" height="85" fill="white" stroke="#D6DAE2"/>
<path d="M25.5 37.5L33.5 45.5H17.5L25.5 37.5Z" fill="#B8B6B6"/>
<path d="M21 59.5C19.6193 59.5 18.5 60.6193 18.5 62V67C18.5 68.3807 19.6193 69.5 21 69.5H21.5V73C21.5 73.842 22.4917 72.7342 23.1253 72.1797L26.1879 69.5H30C31.3807 69.5 32.5 68.3807 32.5 67V62C32.5 60.6193 31.3807 59.5 30 59.5H21Z" fill="#B8B6B6"/>
<path d="M22.5938 23.2368L19.7635 20.4065L27.5871 12.5831L30.4173 15.4135L22.5938 23.2368Z" fill="#B8B6B6"/>
<path d="M32.2413 12.2623L30.7378 10.7587C30.3714 10.3923 29.7516 10.4182 29.3532 10.8165L27.9407 12.2291L30.771 15.0594L32.1835 13.6468C32.5817 13.2485 32.6077 12.6286 32.2413 12.2623ZM19.5007 20.8516L18.5 24.5L22.148 23.4993L19.5007 20.8516Z" fill="#B8B6B6"/>
</svg>
