<svg width="20" height="20" viewBox="0 0 20 20" fill="none" xmlns="http://www.w3.org/2000/svg">
<path d="M5.17452 2.38602C5.31396 2.21063 5.50842 2.08733 5.72652 2.036C5.90452 1.988 6.09352 1.988 6.27052 2.036C6.48971 2.08671 6.68531 2.21007 6.82552 2.38602L9.69951 5.14515C10.0985 5.52617 10.0985 6.14519 9.69951 6.52721L9.66751 6.55721C9.4726 6.74133 9.21463 6.84391 8.94651 6.84391C8.67839 6.84391 8.42043 6.74133 8.22551 6.55721L7.04152 5.42216V13.0005C7.04152 13.5525 6.59552 14.0006 6.04452 14.0006H5.95452C5.68974 14 5.436 13.8944 5.24906 13.7069C5.06211 13.5194 4.95725 13.2653 4.95752 13.0005V5.42016L3.77252 6.55821C3.5776 6.74233 3.31964 6.84491 3.05152 6.84491C2.7834 6.84491 2.52544 6.74233 2.33052 6.55821L2.29852 6.52721C2.20427 6.43848 2.12916 6.3314 2.07782 6.21256C2.02648 6.09372 2 5.96563 2 5.83618C2 5.70672 2.02648 5.57864 2.07782 5.4598C2.12916 5.34096 2.20427 5.23388 2.29852 5.14515L5.17452 2.38702V2.38602ZM14.8245 17.6147C14.6851 17.7901 14.4906 17.9134 14.2725 17.9647C14.0942 18.0118 13.9068 18.0118 13.7285 17.9647C13.5093 17.9141 13.3137 17.7907 13.1735 17.6147L10.2995 14.8556C10.2053 14.7669 10.1301 14.6598 10.0788 14.5409C10.0275 14.4221 10.001 14.294 10.001 14.1646C10.001 14.0351 10.0275 13.907 10.0788 13.7882C10.1301 13.6693 10.2053 13.5623 10.2995 13.4735L10.3315 13.4435C10.5264 13.2594 10.7844 13.1568 11.0525 13.1568C11.3206 13.1568 11.5786 13.2594 11.7735 13.4435L12.9585 14.5786V7.00023C12.9585 6.44821 13.4045 6.00019 13.9555 6.00019H14.0455C14.5955 6.00019 15.0425 6.44821 15.0425 7.00023V14.5806L16.2275 13.4435C16.4224 13.2594 16.6804 13.1568 16.9485 13.1568C17.2166 13.1568 17.4746 13.2594 17.6695 13.4435L17.7015 13.4745C18.0995 13.8566 18.0995 14.4746 17.7015 14.8566L14.8255 17.6147H14.8245Z" fill="#8A8A8A"/>
</svg>
