<svg width="75" height="24" viewBox="0 0 75 24" fill="none" xmlns="http://www.w3.org/2000/svg">
<path d="M9.13018 2.5766C11.8952 2.5766 13.8825 3.99517 14.6025 6.45597L14.6313 6.57177H17.3963L17.3675 6.39807C16.5899 2.4608 13.4505 0 9.15899 0C3.94585 0 0 4.08203 0 9.52473C0 14.9674 3.94585 19.0495 9.15899 19.0495C13.4505 19.0495 16.5899 16.5887 17.3963 12.6514L17.4251 12.4777H14.6601L14.6313 12.5935C13.9113 15.0543 11.8952 16.4729 9.15899 16.4729C5.38594 16.4729 2.85138 13.6936 2.85138 9.52473C2.82258 5.3848 5.35714 2.5766 9.13018 2.5766Z" fill="#525DF9"/>
<path d="M31.711 16.7916C31.0486 16.7916 30.703 16.3863 30.703 15.5757V9.46716C30.703 6.91951 28.6292 5.21143 25.5474 5.21143C23.3873 5.21143 20.7375 6.3405 20.2767 9.52506L20.2479 9.69876H22.6673L22.6961 9.58296C23.0993 7.93278 24.3666 7.58537 25.3746 7.58537C27.1027 7.58537 28.1108 8.36703 28.1108 9.72771V10.4804L24.1938 10.8857C22.0048 11.1173 19.6719 12.3333 19.6719 15.1125C19.6719 17.4575 21.4 19.0208 23.9345 19.0208C25.8067 19.0208 27.3332 18.0365 28.2548 17.0522C28.6292 18.2681 29.5509 18.934 30.8758 18.934C31.3654 18.934 31.7975 18.8471 32.3735 18.6734L32.4599 18.6445V16.6179L32.2871 16.6758C32.1143 16.7627 31.9415 16.7916 31.711 16.7916ZM28.1396 12.5938V14.7072C26.8147 16.0389 25.5763 16.6469 24.2514 16.6469C23.6753 16.6469 22.2928 16.4732 22.2928 14.9967C22.2928 13.8966 23.0993 13.1728 24.4242 12.9991L28.1396 12.5938Z" fill="#525DF9"/>
<path d="M42.1947 5.21143C40.3225 5.21143 38.7384 6.10889 37.8168 6.97741V5.47198H35.2534V18.7892H37.8168V9.93036C38.4504 9.00395 39.7465 7.52747 41.561 7.52747C43.1739 7.52747 44.0668 8.42494 44.0668 10.0751V18.7892H46.6301V9.64086C46.6301 6.86161 44.9596 5.21143 42.1947 5.21143Z" fill="#525DF9"/>
<path d="M56.3939 5.21143C54.5218 5.21143 52.9377 6.10889 52.016 6.97741V5.47198H49.4526V18.7892H52.016V9.93036C52.6496 9.00395 53.9457 7.52747 55.7602 7.52747C57.3731 7.52747 58.266 8.42494 58.266 10.0751V18.7892H60.8294V9.64086C60.8294 6.86161 59.1589 5.21143 56.3939 5.21143Z" fill="#525DF9"/>
<path d="M72.379 5.47168L68.7211 14.9964L68.4907 13.8673L64.9769 5.47168H62.2695L67.4827 18.0652L65.0921 24H67.6843L74.9999 5.47168H72.379Z" fill="#525DF9"/>
</svg>
