<svg width="16" height="16" viewBox="0 0 16 16" fill="none" xmlns="http://www.w3.org/2000/svg">
<path d="M8.93317 8.00008L13.1332 3.80008C13.3998 3.53341 13.3998 3.13341 13.1332 2.86675C12.8665 2.60008 12.4665 2.60008 12.1998 2.86675L7.99984 7.06675L3.79984 2.86675C3.53317 2.60008 3.13317 2.60008 2.8665 2.86675C2.59984 3.13341 2.59984 3.53341 2.8665 3.80008L7.0665 8.00008L2.8665 12.2001C2.73317 12.3334 2.6665 12.4667 2.6665 12.6667C2.6665 13.0667 2.93317 13.3334 3.33317 13.3334C3.53317 13.3334 3.6665 13.2667 3.79984 13.1334L7.99984 8.93341L12.1998 13.1334C12.3332 13.2667 12.4665 13.3334 12.6665 13.3334C12.8665 13.3334 12.9998 13.2667 13.1332 13.1334C13.3998 12.8667 13.3998 12.4667 13.1332 12.2001L8.93317 8.00008Z" fill="#8A8A8A"/>
</svg>
