<svg width="20" height="20" viewBox="0 0 20 20" fill="none" xmlns="http://www.w3.org/2000/svg">
<path d="M14.2417 2.34977C13.4752 1.71943 12.5778 1.26813 11.6147 1.02881C10.6517 0.789488 9.64733 0.76818 8.67499 0.966439C7.38031 1.22796 6.19248 1.86817 5.26223 2.80584C4.33197 3.74351 3.70122 4.93638 3.44999 6.23311C3.26653 7.20537 3.29987 8.20615 3.54763 9.16405C3.79539 10.122 4.25146 11.0134 4.88333 11.7748C5.46973 12.4365 5.80585 13.2827 5.83333 14.1664V16.6664C5.83333 17.3295 6.09672 17.9654 6.56556 18.4342C7.0344 18.903 7.67028 19.1664 8.33333 19.1664H11.6667C12.3297 19.1664 12.9656 18.903 13.4344 18.4342C13.9033 17.9654 14.1667 17.3295 14.1667 16.6664V14.3248C14.1946 13.3491 14.5531 12.4118 15.1833 11.6664C16.2876 10.3004 16.8081 8.55379 16.6318 6.80613C16.4555 5.05847 15.5965 3.45101 14.2417 2.33311V2.34977ZM12.5 16.6664C12.5 16.8875 12.4122 17.0994 12.2559 17.2557C12.0996 17.412 11.8877 17.4998 11.6667 17.4998H8.33333C8.11231 17.4998 7.90035 17.412 7.74407 17.2557C7.58779 17.0994 7.49999 16.8875 7.49999 16.6664V15.8331H12.5V16.6664ZM13.8917 10.6331C13.0537 11.6269 12.5649 12.8681 12.5 14.1664H10.8333V11.6664C10.8333 11.4454 10.7455 11.2335 10.5892 11.0772C10.433 10.9209 10.221 10.8331 9.99999 10.8331C9.77898 10.8331 9.56702 10.9209 9.41074 11.0772C9.25446 11.2335 9.16666 11.4454 9.16666 11.6664V14.1664H7.49999C7.478 12.8899 7.00578 11.6621 6.16666 10.6998C5.61303 10.0364 5.24074 9.24096 5.08608 8.39089C4.93143 7.54083 4.9997 6.6652 5.28423 5.84938C5.56876 5.03356 6.05984 4.30539 6.70959 3.73588C7.35934 3.16636 8.14559 2.77494 8.99166 2.59977C9.71879 2.45006 10.4701 2.46414 11.1911 2.641C11.9121 2.81785 12.5847 3.15304 13.16 3.62223C13.7353 4.09142 14.199 4.68284 14.5172 5.35354C14.8355 6.02424 15.0004 6.75739 15 7.49977C15.0062 8.64132 14.6142 9.74933 13.8917 10.6331Z" fill="#4963F1"/>
</svg>
