<svg width="20" height="20" viewBox="0 0 20 20" fill="none" xmlns="http://www.w3.org/2000/svg">
<path d="M18.0918 16.9085L15.0002 13.8418C16.2002 12.3455 16.7814 10.4462 16.6242 8.53458C16.4669 6.62292 15.5832 4.84415 14.1548 3.56403C12.7263 2.28392 10.8617 1.59976 8.94427 1.65222C7.02686 1.70469 5.20243 2.4898 3.84612 3.84612C2.4898 5.20243 1.70469 7.02686 1.65222 8.94427C1.59976 10.8617 2.28392 12.7263 3.56403 14.1548C4.84415 15.5832 6.62292 16.4669 8.53458 16.6242C10.4462 16.7814 12.3455 16.2002 13.8418 15.0002L16.9085 18.0668C16.986 18.1449 17.0781 18.2069 17.1797 18.2492C17.2812 18.2915 17.3902 18.3133 17.5002 18.3133C17.6102 18.3133 17.7191 18.2915 17.8206 18.2492C17.9222 18.2069 18.0144 18.1449 18.0918 18.0668C18.242 17.9114 18.326 17.7038 18.326 17.4877C18.326 17.2716 18.242 17.0639 18.0918 16.9085ZM9.16683 15.0002C8.01311 15.0002 6.88529 14.658 5.926 14.0171C4.96672 13.3761 4.21904 12.4651 3.77753 11.3992C3.33602 10.3333 3.2205 9.16036 3.44558 8.0288C3.67066 6.89725 4.22624 5.85785 5.04204 5.04204C5.85785 4.22624 6.89725 3.67066 8.0288 3.44558C9.16036 3.2205 10.3333 3.33602 11.3992 3.77753C12.4651 4.21904 13.3761 4.96672 14.0171 5.926C14.658 6.88529 15.0002 8.01311 15.0002 9.16683C15.0002 10.7139 14.3856 12.1977 13.2916 13.2916C12.1977 14.3856 10.7139 15.0002 9.16683 15.0002Z" fill="#888888"/>
</svg>
