<svg width="16" height="16" viewBox="0 0 16 16" fill="none" xmlns="http://www.w3.org/2000/svg">
<path d="M11.3332 8.93988L8.47316 6.11321C8.41118 6.05073 8.33745 6.00113 8.25621 5.96729C8.17497 5.93344 8.08783 5.91602 7.99982 5.91602C7.91182 5.91602 7.82468 5.93344 7.74344 5.96729C7.6622 6.00113 7.58846 6.05073 7.52649 6.11321L4.69982 8.93988C4.63734 9.00186 4.58774 9.07559 4.5539 9.15683C4.52005 9.23807 4.50262 9.32521 4.50262 9.41321C4.50262 9.50122 4.52005 9.58836 4.5539 9.6696C4.58774 9.75084 4.63734 9.82457 4.69982 9.88655C4.82473 10.0107 4.9937 10.0804 5.16982 10.0804C5.34595 10.0804 5.51491 10.0107 5.63982 9.88655L7.99982 7.52655L10.3598 9.88655C10.484 10.0097 10.6516 10.0791 10.8265 10.0799C10.9142 10.0804 11.0012 10.0636 11.0824 10.0304C11.1637 9.99722 11.2375 9.94834 11.2998 9.88655C11.3645 9.8268 11.4168 9.75483 11.4535 9.67477C11.4903 9.59472 11.5108 9.50819 11.5139 9.42016C11.517 9.33214 11.5026 9.24438 11.4716 9.16194C11.4406 9.0795 11.3935 9.00403 11.3332 8.93988Z" fill="#575757"/>
</svg>
