<svg width="24" height="24" viewBox="0 0 24 24" fill="none" xmlns="http://www.w3.org/2000/svg">
<path d="M7.00015 8.00015H21.0001C21.6001 8.00015 22.0001 7.60015 22.0001 7.00015C22.0001 6.40015 21.6001 6.00015 21.0001 6.00015H7.00015C6.40015 6.00015 6.00015 6.40015 6.00015 7.00015C6.00015 7.60015 6.40015 8.00015 7.00015 8.00015ZM21.0001 11.0001H7.00015C6.40015 11.0001 6.00015 11.4001 6.00015 12.0001C6.00015 12.6001 6.40015 13.0001 7.00015 13.0001H21.0001C21.6001 13.0001 22.0001 12.6001 22.0001 12.0001C22.0001 11.4001 21.6001 11.0001 21.0001 11.0001ZM21.0001 16.0001H7.00015C6.40015 16.0001 6.00015 16.4001 6.00015 17.0001C6.00015 17.6001 6.40015 18.0001 7.00015 18.0001H21.0001C21.6001 18.0001 22.0001 17.6001 22.0001 17.0001C22.0001 16.4001 21.6001 16.0001 21.0001 16.0001ZM3.70015 6.30015C3.60015 6.20015 3.50015 6.10015 3.40015 6.10015C3.00015 5.90015 2.60015 6.00015 2.30015 6.30015C2.20015 6.40015 2.10015 6.50015 2.10015 6.60015C2.00015 6.90015 2.00015 7.10015 2.10015 7.40015C2.20015 7.50015 2.20015 7.60015 2.30015 7.70015C2.40015 7.80015 2.50015 7.90015 2.60015 7.90015C2.70015 8.00015 2.90015 8.00015 3.00015 8.00015C3.30015 8.00015 3.50015 7.90015 3.70015 7.70015C3.80015 7.60015 3.90015 7.50015 3.90015 7.40015C4.00015 7.10015 4.00015 6.90015 3.90015 6.60015C3.90015 6.50015 3.80015 6.40015 3.70015 6.30015ZM3.70015 11.3001C3.40015 11.0001 3.00015 10.9001 2.60015 11.1001C2.50015 11.2001 2.40015 11.2001 2.30015 11.3001C2.20015 11.4001 2.10015 11.5001 2.10015 11.6001C2.00015 11.8001 2.00015 12.1001 2.10015 12.4001C2.20015 12.5001 2.20015 12.6001 2.30015 12.7001C2.40015 12.8001 2.50015 12.9001 2.60015 12.9001C2.70015 13.0001 2.90015 13.0001 3.00015 13.0001C3.10015 13.0001 3.30015 13.0001 3.40015 12.9001C3.50015 12.8001 3.60015 12.8001 3.70015 12.7001C3.80015 12.6001 3.90015 12.5001 3.90015 12.4001C4.00015 12.2001 4.00015 11.9001 3.90015 11.6001C3.90015 11.5001 3.80015 11.4001 3.70015 11.3001ZM3.70015 16.3001C3.60015 16.2001 3.50015 16.1001 3.40015 16.1001C3.20015 16.0001 2.90015 16.0001 2.60015 16.1001C2.50015 16.1001 2.40015 16.2001 2.30015 16.3001C2.20015 16.4001 2.10015 16.5001 2.10015 16.6001C1.90015 17.0001 2.00015 17.4001 2.30015 17.7001C2.40015 17.8001 2.50015 17.9001 2.60015 17.9001C2.70015 18.0001 2.90015 18.0001 3.00015 18.0001C3.10015 18.0001 3.30015 18.0001 3.40015 17.9001C3.50015 17.8001 3.60015 17.8001 3.70015 17.7001C4.00015 17.4001 4.10015 17.0001 3.90015 16.6001C3.90015 16.5001 3.80015 16.4001 3.70015 16.3001Z" fill="#999999"/>
</svg>
