<svg width="24" height="24" viewBox="0 0 24 24" fill="none" xmlns="http://www.w3.org/2000/svg">
<path d="M13.2985 16.5V17.775C13.2938 18.2484 13.0407 18.5109 12.5673 18.5109C11.3157 18.5156 10.0642 18.5156 8.81729 18.5109C8.35791 18.5109 8.1001 18.2531 8.09541 17.7891C8.09072 17.3578 8.09072 16.9266 8.09541 16.4953C8.1001 16.0922 8.2876 15.9094 8.69541 15.9047H9.38447V13.3125H4.2001V15.9094H4.88916C5.29697 15.9141 5.48447 16.0969 5.48916 16.5C5.49385 16.9312 5.49385 17.3625 5.48916 17.7938C5.48447 18.2578 5.23135 18.5156 4.76728 18.5156H1.01729C0.543848 18.5156 0.290723 18.2578 0.286035 17.7797C0.281348 17.3531 0.281348 16.9266 0.281348 16.5C0.281348 16.1203 0.487598 15.9094 0.867285 15.9047C1.10166 15.9 1.33604 15.9047 1.56572 15.9047V8.08125C1.30791 8.08125 1.06885 8.08594 0.829785 8.08125C0.487598 8.07656 0.286035 7.87031 0.281348 7.53281C0.27666 7.08281 0.27666 6.63281 0.281348 6.18281C0.286035 5.74687 0.548535 5.48906 0.98916 5.48906H4.89385C5.2876 5.48906 5.47978 5.67656 5.48447 6.07031C5.48916 6.54844 5.48916 7.02188 5.48447 7.5C5.47978 7.89375 5.29228 8.08594 4.89853 8.08594H4.2001V10.6875H9.3751V8.08594H8.67666C8.28291 8.08125 8.09541 7.89375 8.09072 7.5C8.08604 7.02188 8.08604 6.54844 8.09072 6.07031C8.09541 5.67656 8.2876 5.48906 8.68135 5.48906H12.586C13.0267 5.48906 13.2892 5.74687 13.2938 6.18281C13.2985 6.63281 13.2985 7.08281 13.2938 7.53281C13.2892 7.875 13.0876 8.07656 12.7454 8.08125C12.5063 8.08594 12.2626 8.08125 12.0095 8.08125V15.9047H12.7079C13.0876 15.9141 13.2938 16.1203 13.2985 16.5ZM16.3923 18.5156H22.9079C23.3579 18.5156 23.7235 18.15 23.7235 17.7V16.0734C23.7235 15.6234 23.3579 15.2578 22.9079 15.2578H21.2813V6.3C21.2813 5.85 20.9157 5.48438 20.4657 5.48438H18.0235C17.7142 5.48438 17.4329 5.65781 17.297 5.93437L16.4813 7.56094C16.2798 7.96406 16.4438 8.45156 16.847 8.65313C16.9595 8.70938 17.086 8.7375 17.2079 8.7375H18.0235V15.2531H16.397C15.947 15.2531 15.5813 15.6187 15.5813 16.0687V17.6953C15.5767 18.15 15.9423 18.5156 16.3923 18.5156Z" fill="#999999"/>
</svg>
