<svg width="10" height="10" viewBox="0 0 10 10" fill="none" xmlns="http://www.w3.org/2000/svg">
<path d="M9.16683 4.20839C9.2085 4.00006 9.04183 3.75006 8.8335 3.75006L6.4585 3.41672L5.37516 1.25006C5.3335 1.16672 5.29183 1.12506 5.2085 1.08339C5.00016 0.958389 4.75016 1.04172 4.62516 1.25006L3.5835 3.41672L1.2085 3.75006C1.0835 3.75006 1.00016 3.79172 0.958496 3.87506C0.791829 4.04172 0.791829 4.29172 0.958496 4.45839L2.66683 6.12506L2.25016 8.50006C2.25016 8.58339 2.25016 8.66672 2.29183 8.75006C2.41683 8.95839 2.66683 9.04172 2.87516 8.91672L5.00016 7.79172L7.12516 8.91672C7.16683 8.95839 7.25016 8.95839 7.3335 8.95839C7.37516 8.95839 7.37516 8.95839 7.41683 8.95839C7.62516 8.91672 7.79183 8.70839 7.75016 8.45839L7.3335 6.08339L9.04183 4.41672C9.12516 4.37506 9.16683 4.29172 9.16683 4.20839Z" fill="white"/>
</svg>
