<svg width="24" height="24" viewBox="0 0 24 24" fill="none" xmlns="http://www.w3.org/2000/svg">
<path d="M9.99984 17.5501L8.22984 19.2701C7.76571 19.7342 7.13621 19.995 6.47984 19.995C5.82346 19.995 5.19397 19.7342 4.72984 19.2701C4.26571 18.806 4.00496 18.1765 4.00496 17.5201C4.00496 16.8637 4.26571 16.2342 4.72984 15.7701L9.26984 11.2201C9.71545 10.773 10.3159 10.5144 10.9469 10.4976C11.5778 10.4809 12.1911 10.7073 12.6598 11.1301L12.7798 11.2301C12.9695 11.4157 13.2251 11.5185 13.4904 11.5157C13.7558 11.5128 14.0092 11.4047 14.1948 11.2151C14.3805 11.0255 14.4832 10.7699 14.4804 10.5045C14.4776 10.2391 14.3695 9.98575 14.1798 9.80009C14.1234 9.72712 14.0633 9.65703 13.9998 9.59009C13.1462 8.84741 12.0422 8.45694 10.9114 8.49779C9.78064 8.53864 8.70767 9.00775 7.90984 9.81009L3.30984 14.3601C2.52819 15.2109 2.10546 16.3308 2.12991 17.4858C2.15436 18.6409 2.62412 19.7419 3.44107 20.5589C4.25802 21.3758 5.359 21.8456 6.51408 21.87C7.66917 21.8945 8.78904 21.4717 9.63984 20.6901L11.3698 19.0001C11.5407 18.8137 11.6346 18.5696 11.6326 18.3168C11.6307 18.064 11.5332 17.8214 11.3595 17.6376C11.1859 17.4539 10.9492 17.3427 10.6969 17.3264C10.4446 17.3102 10.1956 17.3901 9.99984 17.5501ZM20.6898 3.31009C19.8486 2.4741 18.7108 2.00488 17.5248 2.00488C16.3389 2.00488 15.2011 2.4741 14.3598 3.31009L12.6298 5.00009C12.459 5.18644 12.3651 5.43057 12.367 5.68336C12.3689 5.93615 12.4665 6.17883 12.6401 6.36258C12.8137 6.54633 13.0505 6.65751 13.3028 6.67375C13.555 6.68998 13.8041 6.61007 13.9998 6.45009L15.7298 4.73009C16.194 4.26597 16.8235 4.00522 17.4798 4.00522C18.1362 4.00522 18.7657 4.26597 19.2298 4.73009C19.694 5.19422 19.9547 5.82372 19.9547 6.48009C19.9547 7.13647 19.694 7.76596 19.2298 8.23009L14.6898 12.7801C14.2442 13.2272 13.6438 13.4858 13.0128 13.5026C12.3818 13.5193 11.7685 13.2929 11.2998 12.8701L11.1798 12.7701C10.9902 12.5844 10.7346 12.4817 10.4692 12.4845C10.2039 12.4874 9.95049 12.5955 9.76484 12.7851C9.57919 12.9747 9.47647 13.2303 9.47928 13.4957C9.48209 13.7611 9.59021 14.0144 9.77984 14.2001C9.85247 14.2744 9.92926 14.3445 10.0098 14.4101C10.8645 15.1505 11.9681 15.5395 13.0981 15.4987C14.2282 15.4579 15.3008 14.9903 16.0998 14.1901L20.6498 9.64009C21.4912 8.80417 21.9676 7.66932 21.9751 6.48334C21.9826 5.29736 21.5205 4.15659 20.6898 3.31009Z" fill="#999999"/>
</svg>
