<svg width="20" height="20" viewBox="0 0 20 20" fill="none" xmlns="http://www.w3.org/2000/svg">
<path d="M16.9168 10.5832C16.6668 10.2498 16.6668 9.83317 16.9168 9.49984L18.0001 8.33317C18.2501 8.08317 18.2501 7.6665 18.0835 7.33317L16.4168 4.4165C16.2501 4.08317 15.9168 3.9165 15.5001 3.99984L13.9168 4.33317C13.5001 4.4165 13.0835 4.1665 13.0001 3.74984L12.5001 2.24984C12.3335 1.9165 12.0001 1.6665 11.6668 1.6665H8.33345C8.00012 1.6665 7.66679 1.9165 7.58346 2.24984L7.00012 3.74984C6.91679 4.1665 6.50012 4.4165 6.08345 4.33317L4.50012 3.99984C4.16679 3.9165 3.83345 4.08317 3.58345 4.4165L1.91679 7.33317C1.75012 7.58317 1.83345 7.99984 2.08345 8.24984L3.16679 9.4165C3.41679 9.74984 3.41679 10.1665 3.16679 10.4998L2.08345 11.6665C1.83345 11.9165 1.83345 12.3332 2.00012 12.6665L3.66679 15.5832C3.83345 15.9165 4.16679 16.0832 4.58345 15.9998L6.16679 15.6665C6.58345 15.5832 7.00012 15.8332 7.08345 16.2498L7.58346 17.7498C7.66679 18.0832 8.00012 18.3332 8.33345 18.3332H11.6668C12.0001 18.3332 12.3335 18.0832 12.4168 17.7498L12.9168 16.2498C13.0835 15.8332 13.5001 15.5832 13.8335 15.6665L15.4168 15.9998C15.7501 16.0832 16.1668 15.9165 16.3335 15.5832L18.0001 12.6665C18.1668 12.3332 18.1668 11.9998 17.9168 11.6665L16.9168 10.5832ZM10.0001 12.4998C8.58345 12.4998 7.50012 11.4165 7.50012 9.99984C7.50012 8.58317 8.58345 7.49984 10.0001 7.49984C11.4168 7.49984 12.5001 8.58317 12.5001 9.99984C12.5001 11.4165 11.4168 12.4998 10.0001 12.4998Z" fill="#8A8A8A"/>
</svg>
