<svg width="24" height="24" viewBox="0 0 24 24" fill="none" xmlns="http://www.w3.org/2000/svg">
<path d="M7 20H4V19.9C4 19.4 4.4 19 4.9 19C6.3 19 7.5 18.1 7.9 16.8C8.3 15.2 7.4 13.5 5.8 13.1C4.5 12.7 3.1 13.3 2.4 14.5C2.1 15 2.3 15.6 2.8 15.9C3.3 16.2 3.9 16 4.2 15.5C4.5 15 5.1 14.9 5.6 15.2C5.7 15.3 5.8 15.3 5.8 15.4C6 15.7 6 16 6 16.3C5.8 16.7 5.4 17 5 17C3.3 17 2 18.3 2 19.9V21C2 21.6 2.4 22 3 22H7C7.6 22 8 21.6 8 21C8 20.4 7.6 20 7 20ZM11 7H21C21.6 7 22 6.6 22 6C22 5.4 21.6 5 21 5H11C10.4 5 10 5.4 10 6C10 6.6 10.4 7 11 7ZM7 9H6V3C6 2.4 5.6 2 5 2C4.4 2 4 2.4 4 3V4H3C2.4 4 2 4.4 2 5C2 5.6 2.4 6 3 6H4V9H3C2.4 9 2 9.4 2 10C2 10.6 2.4 11 3 11H7C7.6 11 8 10.6 8 10C8 9.4 7.6 9 7 9ZM21 16H11C10.4 16 10 16.4 10 17C10 17.6 10.4 18 11 18H21C21.6 18 22 17.6 22 17C22 16.4 21.6 16 21 16Z" fill="#999999"/>
</svg>
