<svg width="24" height="24" viewBox="0 0 24 24" fill="none" xmlns="http://www.w3.org/2000/svg">
<path d="M17.5799 10.2145C14.8439 4.32606 13.4207 2.08926 8.95074 2.18286C7.35834 2.21526 7.73994 1.02846 6.52554 1.47846C5.31354 1.92846 6.35394 2.58726 5.11314 3.60606C1.63074 6.46566 1.95113 9.11046 3.56633 15.4141C4.24673 18.0697 1.92593 18.1993 2.84393 20.7721C3.51473 22.6489 8.45873 23.4349 13.6739 21.5005C18.8903 19.5649 22.1771 15.7237 21.5063 13.8469C20.5883 11.2729 18.7331 12.6937 17.5799 10.2145ZM13.1087 19.9141C8.45033 21.6421 4.62233 20.6269 4.46034 20.1745C4.18193 19.3945 5.96393 16.7953 11.2895 14.8189C16.6151 12.8425 19.5875 13.5757 19.8983 14.4457C20.0819 14.9605 17.7683 18.1849 13.1087 19.9141ZM11.6111 15.7213C9.17633 16.6249 7.48433 17.6581 6.38754 18.5881C7.15913 19.2889 8.60394 19.4593 10.0427 18.9253C11.8751 18.2473 13.0019 16.6861 12.5567 15.4405L12.5375 15.3973C12.2363 15.4957 11.9279 15.6025 11.6111 15.7213Z" fill="white"/>
</svg>
