<svg width="20" height="20" viewBox="0 0 20 20" fill="none" xmlns="http://www.w3.org/2000/svg">
<path d="M18.0921 16.9083L15.0004 13.8416C16.2005 12.3453 16.7817 10.446 16.6244 8.53434C16.4672 6.62267 15.5835 4.84391 14.155 3.56379C12.7266 2.28368 10.8619 1.59951 8.94451 1.65198C7.02711 1.70445 5.20268 2.48956 3.84636 3.84587C2.49004 5.20219 1.70493 7.02662 1.65247 8.94402C1.6 10.8614 2.28416 12.7261 3.56428 14.1545C4.84439 15.583 6.62316 16.4667 8.53483 16.6239C10.4465 16.7812 12.3458 16.2 13.8421 14.9999L16.9087 18.0666C16.9862 18.1447 17.0784 18.2067 17.1799 18.249C17.2815 18.2913 17.3904 18.3131 17.5004 18.3131C17.6104 18.3131 17.7193 18.2913 17.8209 18.249C17.9224 18.2067 18.0146 18.1447 18.0921 18.0666C18.2423 17.9112 18.3262 17.7035 18.3262 17.4874C18.3262 17.2713 18.2423 17.0636 18.0921 16.9083ZM9.16708 14.9999C8.01335 14.9999 6.88554 14.6578 5.92625 14.0168C4.96696 13.3759 4.21929 12.4648 3.77778 11.3989C3.33627 10.333 3.22075 9.16012 3.44583 8.02856C3.67091 6.89701 4.22648 5.8576 5.04229 5.0418C5.85809 4.22599 6.89749 3.67042 8.02905 3.44534C9.1606 3.22026 10.3335 3.33578 11.3994 3.77729C12.4653 4.2188 13.3763 4.96647 14.0173 5.92576C14.6583 6.88505 15.0004 8.01286 15.0004 9.16659C15.0004 10.7137 14.3858 12.1974 13.2919 13.2914C12.1979 14.3853 10.7142 14.9999 9.16708 14.9999Z" fill="#8A8A8A"/>
</svg>
