<svg width="20" height="20" viewBox="0 0 20 20" fill="none" xmlns="http://www.w3.org/2000/svg">
<path d="M5.83362 6.66663H17.5003C18.0003 6.66663 18.3336 6.33329 18.3336 5.83329C18.3336 5.33329 18.0003 4.99996 17.5003 4.99996H5.83362C5.33362 4.99996 5.00028 5.33329 5.00028 5.83329C5.00028 6.33329 5.33362 6.66663 5.83362 6.66663ZM17.5003 9.16662H5.83362C5.33362 9.16662 5.00028 9.49996 5.00028 9.99996C5.00028 10.5 5.33362 10.8333 5.83362 10.8333H17.5003C18.0003 10.8333 18.3336 10.5 18.3336 9.99996C18.3336 9.49996 18.0003 9.16662 17.5003 9.16662ZM17.5003 13.3333H5.83362C5.33362 13.3333 5.00028 13.6666 5.00028 14.1666C5.00028 14.6666 5.33362 15 5.83362 15H17.5003C18.0003 15 18.3336 14.6666 18.3336 14.1666C18.3336 13.6666 18.0003 13.3333 17.5003 13.3333ZM3.08362 5.24996C3.00028 5.16663 2.91695 5.08329 2.83362 5.08329C2.50028 4.91663 2.16695 4.99996 1.91695 5.24996C1.83362 5.33329 1.75028 5.41663 1.75028 5.49996C1.66695 5.74996 1.66695 5.91663 1.75028 6.16663C1.83362 6.24996 1.83362 6.33329 1.91695 6.41662C2.00028 6.49996 2.08362 6.58329 2.16695 6.58329C2.25028 6.66663 2.41695 6.66663 2.50028 6.66663C2.75028 6.66663 2.91695 6.58329 3.08362 6.41662C3.16695 6.33329 3.25028 6.24996 3.25028 6.16663C3.33362 5.91663 3.33362 5.74996 3.25028 5.49996C3.25028 5.41663 3.16695 5.33329 3.08362 5.24996ZM3.08362 9.41663C2.83362 9.16663 2.50028 9.08329 2.16695 9.24996C2.08362 9.33329 2.00028 9.33329 1.91695 9.41663C1.83362 9.49996 1.75028 9.58329 1.75028 9.66663C1.66695 9.83329 1.66695 10.0833 1.75028 10.3333C1.83362 10.4166 1.83362 10.5 1.91695 10.5833C2.00028 10.6666 2.08362 10.75 2.16695 10.75C2.25028 10.8333 2.41695 10.8333 2.50028 10.8333C2.58362 10.8333 2.75028 10.8333 2.83362 10.75C2.91695 10.6666 3.00028 10.6666 3.08362 10.5833C3.16695 10.5 3.25028 10.4166 3.25028 10.3333C3.33362 10.1666 3.33362 9.91663 3.25028 9.66663C3.25028 9.58329 3.16695 9.49996 3.08362 9.41663ZM3.08362 13.5833C3.00028 13.5 2.91695 13.4166 2.83362 13.4166C2.66695 13.3333 2.41695 13.3333 2.16695 13.4166C2.08362 13.4166 2.00028 13.5 1.91695 13.5833C1.83362 13.6666 1.75028 13.75 1.75028 13.8333C1.58362 14.1666 1.66695 14.5 1.91695 14.75C2.00028 14.8333 2.08362 14.9166 2.16695 14.9166C2.25028 15 2.41695 15 2.50028 15C2.58362 15 2.75028 15 2.83362 14.9166C2.91695 14.8333 3.00028 14.8333 3.08362 14.75C3.33362 14.5 3.41695 14.1666 3.25028 13.8333C3.25028 13.75 3.16695 13.6666 3.08362 13.5833Z" fill="#424C5D"/>
</svg>
