<svg width="16" height="16" viewBox="0 0 16 16" fill="none" xmlns="http://www.w3.org/2000/svg">
<path d="M12.6666 2.66683H11.9999V2.00016C11.9999 1.60016 11.7333 1.3335 11.3333 1.3335C10.9333 1.3335 10.6666 1.60016 10.6666 2.00016V2.66683H5.33325V2.00016C5.33325 1.60016 5.06659 1.3335 4.66659 1.3335C4.26659 1.3335 3.99992 1.60016 3.99992 2.00016V2.66683H3.33325C2.19992 2.66683 1.33325 3.5335 1.33325 4.66683V5.3335H14.6666V4.66683C14.6666 3.5335 13.7999 2.66683 12.6666 2.66683ZM1.33325 12.6668C1.33325 13.8002 2.19992 14.6668 3.33325 14.6668H12.6666C13.7999 14.6668 14.6666 13.8002 14.6666 12.6668V6.66683H1.33325V12.6668ZM11.3333 8.00016C11.7333 8.00016 11.9999 8.26683 11.9999 8.66683C11.9999 9.06683 11.7333 9.3335 11.3333 9.3335C10.9333 9.3335 10.6666 9.06683 10.6666 8.66683C10.6666 8.26683 10.9333 8.00016 11.3333 8.00016ZM11.3333 10.6668C11.7333 10.6668 11.9999 10.9335 11.9999 11.3335C11.9999 11.7335 11.7333 12.0002 11.3333 12.0002C10.9333 12.0002 10.6666 11.7335 10.6666 11.3335C10.6666 10.9335 10.9333 10.6668 11.3333 10.6668ZM7.99992 8.00016C8.39992 8.00016 8.66659 8.26683 8.66659 8.66683C8.66659 9.06683 8.39992 9.3335 7.99992 9.3335C7.59992 9.3335 7.33325 9.06683 7.33325 8.66683C7.33325 8.26683 7.59992 8.00016 7.99992 8.00016ZM7.99992 10.6668C8.39992 10.6668 8.66659 10.9335 8.66659 11.3335C8.66659 11.7335 8.39992 12.0002 7.99992 12.0002C7.59992 12.0002 7.33325 11.7335 7.33325 11.3335C7.33325 10.9335 7.59992 10.6668 7.99992 10.6668ZM4.66659 8.00016C5.06659 8.00016 5.33325 8.26683 5.33325 8.66683C5.33325 9.06683 5.06659 9.3335 4.66659 9.3335C4.26659 9.3335 3.99992 9.06683 3.99992 8.66683C3.99992 8.26683 4.26659 8.00016 4.66659 8.00016ZM4.66659 10.6668C5.06659 10.6668 5.33325 10.9335 5.33325 11.3335C5.33325 11.7335 5.06659 12.0002 4.66659 12.0002C4.26659 12.0002 3.99992 11.7335 3.99992 11.3335C3.99992 10.9335 4.26659 10.6668 4.66659 10.6668Z" fill="white"/>
</svg>
