<svg width="20" height="20" viewBox="0 0 20 20" fill="none" xmlns="http://www.w3.org/2000/svg">
<path d="M15.8332 1.66675H4.1665C3.50346 1.66675 2.86758 1.93014 2.39874 2.39898C1.9299 2.86782 1.6665 3.50371 1.6665 4.16675V5.14175C1.66638 5.48587 1.73731 5.82631 1.87484 6.14175V6.19175C1.99257 6.45922 2.15933 6.7023 2.3665 6.90841L7.49984 12.0084V17.5001C7.49955 17.6417 7.53537 17.7811 7.6039 17.905C7.67243 18.0289 7.77141 18.1334 7.8915 18.2084C8.02412 18.2906 8.17715 18.3339 8.33317 18.3334C8.46362 18.3326 8.59207 18.3012 8.70817 18.2417L12.0415 16.5751C12.1789 16.5058 12.2945 16.3999 12.3754 16.269C12.4563 16.1381 12.4994 15.9873 12.4998 15.8334V12.0084L17.5998 6.90841C17.807 6.7023 17.9738 6.45922 18.0915 6.19175V6.14175C18.2405 5.82877 18.3228 5.48823 18.3332 5.14175V4.16675C18.3332 3.50371 18.0698 2.86782 17.6009 2.39898C17.1321 1.93014 16.4962 1.66675 15.8332 1.66675ZM11.0748 11.0751C10.9976 11.1529 10.9365 11.2453 10.895 11.3468C10.8536 11.4484 10.8325 11.5571 10.8332 11.6667V15.3167L9.1665 16.1501V11.6667C9.16714 11.5571 9.14612 11.4484 9.10465 11.3468C9.06318 11.2453 9.00207 11.1529 8.92484 11.0751L4.50817 6.66675H15.4915L11.0748 11.0751ZM16.6665 5.00008H3.33317V4.16675C3.33317 3.94573 3.42097 3.73377 3.57725 3.57749C3.73353 3.42121 3.94549 3.33341 4.1665 3.33341H15.8332C16.0542 3.33341 16.2661 3.42121 16.4224 3.57749C16.5787 3.73377 16.6665 3.94573 16.6665 4.16675V5.00008Z" fill="#8A8A8A"/>
</svg>
