<svg width="20" height="20" viewBox="0 0 20 20" fill="none" xmlns="http://www.w3.org/2000/svg">
<path d="M15.8333 9.16683H10.8333V4.16683C10.8333 3.66683 10.4999 3.3335 9.99992 3.3335C9.49992 3.3335 9.16658 3.66683 9.16658 4.16683V9.16683H4.16659C3.66659 9.16683 3.33325 9.50016 3.33325 10.0002C3.33325 10.5002 3.66659 10.8335 4.16659 10.8335H9.16658V15.8335C9.16658 16.3335 9.49992 16.6668 9.99992 16.6668C10.4999 16.6668 10.8333 16.3335 10.8333 15.8335V10.8335H15.8333C16.3333 10.8335 16.6666 10.5002 16.6666 10.0002C16.6666 9.50016 16.3333 9.16683 15.8333 9.16683Z" fill="#8A8A8A"/>
</svg>
