<svg width="24" height="24" viewBox="0 0 24 24" fill="none" xmlns="http://www.w3.org/2000/svg">
<path d="M12 2C10.0222 2 8.08879 2.58649 6.4443 3.6853C4.79981 4.78412 3.51809 6.3459 2.76121 8.17317C2.00433 10.0004 1.8063 12.0111 2.19215 13.9509C2.578 15.8907 3.53041 17.6725 4.92894 19.0711C6.32746 20.4696 8.10929 21.422 10.0491 21.8079C11.9889 22.1937 13.9996 21.9957 15.8268 21.2388C17.6541 20.4819 19.2159 19.2002 20.3147 17.5557C21.4135 15.9112 22 13.9778 22 12C22 10.6868 21.7414 9.38642 21.2388 8.17316C20.7363 6.9599 19.9997 5.8575 19.0711 4.92892C18.1425 4.00033 17.0401 3.26374 15.8268 2.76119C14.6136 2.25865 13.3132 1.99999 12 2ZM12 17.0062C11.8022 17.0062 11.6089 16.9476 11.4444 16.8377C11.28 16.7278 11.1518 16.5716 11.0761 16.3889C11.0004 16.2062 10.9806 16.0051 11.0192 15.8111C11.0578 15.6172 11.153 15.439 11.2929 15.2991C11.4328 15.1593 11.6109 15.064 11.8049 15.0254C11.9989 14.9869 12.2 15.0067 12.3827 15.0824C12.5654 15.158 12.7216 15.2862 12.8315 15.4507C12.9414 15.6151 13 15.8084 13 16.0062C13 16.2714 12.8946 16.5258 12.7071 16.7133C12.5196 16.9009 12.2652 17.0062 12 17.0062ZM13 12.8157V13C13 13.2652 12.8946 13.5196 12.7071 13.7071C12.5196 13.8946 12.2652 14 12 14C11.7348 14 11.4804 13.8946 11.2929 13.7071C11.1054 13.5196 11 13.2652 11 13V12C10.9999 11.8687 11.0257 11.7386 11.076 11.6172C11.1262 11.4959 11.1999 11.3856 11.2927 11.2927C11.3856 11.1999 11.4959 11.1262 11.6172 11.076C11.7386 11.0257 11.8687 10.9999 12 11C12.1756 10.9999 12.348 10.9536 12.5 10.8657C12.652 10.7778 12.7781 10.6515 12.8658 10.4994C12.9535 10.3473 12.9996 10.1748 12.9994 9.9992C12.9993 9.82364 12.9529 9.65121 12.865 9.49925C12.7771 9.34728 12.6507 9.22114 12.4986 9.1335C12.3465 9.04587 12.174 8.99982 11.9984 9C11.8228 9.00018 11.6504 9.04657 11.4985 9.13452C11.3465 9.22246 11.2204 9.34886 11.1328 9.501C10.9999 9.73047 10.7814 9.89777 10.5251 9.96607C10.2689 10.0344 9.99605 9.99811 9.76658 9.86524C9.5371 9.73236 9.36981 9.51377 9.30151 9.25755C9.2332 9.00133 9.26947 8.72847 9.40234 8.499C9.64274 8.0795 9.98105 7.72439 10.3884 7.46396C10.7958 7.20354 11.2601 7.04552 11.7418 7.00341C12.2234 6.9613 12.7081 7.03633 13.1545 7.22211C13.6009 7.4079 13.9957 7.69891 14.3052 8.07032C14.6148 8.44173 14.8299 8.88252 14.9322 9.35507C15.0345 9.82762 15.0209 10.3179 14.8927 10.7841C14.7645 11.2503 14.5254 11.6785 14.1958 12.0323C13.8662 12.386 13.456 12.6548 13 12.8157Z" fill="#8A8A8A"/>
</svg>
