<svg width="24" height="24" viewBox="0 0 24 24" fill="none" xmlns="http://www.w3.org/2000/svg">
<path d="M14.1 15.75C13.8613 15.75 13.6324 15.8488 13.4636 16.0246C13.2948 16.2004 13.2 16.4389 13.2 16.6875V19.8125C13.2 19.8954 13.1684 19.9749 13.1121 20.0335C13.0559 20.0921 12.9796 20.125 12.9 20.125H5.1C5.02044 20.125 4.94413 20.0921 4.88787 20.0335C4.83161 19.9749 4.8 19.8954 4.8 19.8125V4.1875C4.8 4.10462 4.83161 4.02513 4.88787 3.96653C4.94413 3.90792 5.02044 3.875 5.1 3.875H12.9C12.9796 3.875 13.0559 3.90792 13.1121 3.96653C13.1684 4.02513 13.2 4.10462 13.2 4.1875V7.3125C13.2 7.56114 13.2948 7.7996 13.4636 7.97541C13.6324 8.15123 13.8613 8.25 14.1 8.25C14.3387 8.25 14.5676 8.15123 14.7364 7.97541C14.9052 7.7996 15 7.56114 15 7.3125V4.1875C15 2.98125 14.058 2 12.9 2H5.1C3.942 2 3 2.98125 3 4.1875V19.8125C3 21.0187 3.942 22 5.1 22H12.9C14.058 22 15 21.0187 15 19.8125V16.6875C15 16.4389 14.9052 16.2004 14.7364 16.0246C14.5676 15.8488 14.3387 15.75 14.1 15.75Z" fill="#888888"/>
<path d="M19.7532 11.4255L17.5029 9.24011C17.4245 9.16398 17.3314 9.1036 17.229 9.0624C17.1266 9.0212 17.0168 9 16.906 9C16.7951 9 16.6854 9.0212 16.5829 9.0624C16.4805 9.1036 16.3875 9.16398 16.3091 9.24011C16.2307 9.31623 16.1685 9.4066 16.1261 9.50606C16.0837 9.60552 16.0618 9.71213 16.0618 9.81978C16.0618 9.92744 16.0837 10.034 16.1261 10.1335C16.1685 10.233 16.2307 10.3233 16.3091 10.3995L17.1192 11.1862H11.8433C11.6196 11.1862 11.4052 11.2725 11.247 11.4261C11.0888 11.5796 11 11.788 11 12.0052C11 12.2224 11.0888 12.4307 11.247 12.5843C11.4052 12.7378 11.6196 12.8241 11.8433 12.8241H17.1192L16.3091 13.6109C16.1553 13.7654 16.0701 13.9723 16.0719 14.1872C16.0738 14.4021 16.1624 14.6077 16.3188 14.7597C16.4752 14.9117 16.6868 14.998 16.9081 15C17.1293 15.0019 17.3425 14.9194 17.5018 14.7702L19.7521 12.5848C19.8306 12.5088 19.8929 12.4185 19.9354 12.3191C19.9779 12.2196 19.9999 12.1131 20 12.0054C20.0001 11.8977 19.9784 11.7911 19.936 11.6916C19.8937 11.5921 19.8315 11.5017 19.7532 11.4255Z" fill="#888888"/>
</svg>
