<svg width="24" height="24" viewBox="0 0 24 24" fill="none" xmlns="http://www.w3.org/2000/svg">
<path d="M18.3376 9.21131C18.3068 9.14795 18.2589 9.09453 18.1992 9.05716C18.1395 9.01979 18.0705 8.99998 18.0001 9H14.0926L17.214 2.41039C17.2411 2.35324 17.2533 2.29016 17.2495 2.22703C17.2456 2.16389 17.2259 2.10276 17.192 2.04932C17.1582 1.99587 17.1114 1.95186 17.056 1.92138C17.0005 1.8909 16.9383 1.87495 16.8751 1.875H10.8751C10.8027 1.87499 10.7319 1.8959 10.6712 1.93521C10.6105 1.97452 10.5624 2.03055 10.5328 2.09655L5.65783 12.9715C5.63222 13.0287 5.62131 13.0913 5.6261 13.1537C5.63089 13.2161 5.65122 13.2763 5.68524 13.3288C5.71926 13.3814 5.76589 13.4246 5.82088 13.4545C5.87587 13.4844 5.93747 13.5 6.00006 13.5H9.65976L7.88365 21.6702C7.86553 21.7531 7.87607 21.8397 7.91354 21.9158C7.95101 21.9919 8.0132 22.0531 8.08994 22.0893C8.16668 22.1255 8.25343 22.1347 8.33602 22.1152C8.41862 22.0957 8.49217 22.0488 8.54466 21.9822L18.2947 9.60716C18.3382 9.55184 18.3653 9.48539 18.3729 9.41539C18.3805 9.3454 18.3682 9.27468 18.3376 9.21131Z" fill="white"/>
</svg>
