<svg width="20" height="20" viewBox="0 0 20 20" fill="none" xmlns="http://www.w3.org/2000/svg">
<path d="M17.4998 11.6667C17.2788 11.6667 17.0669 11.7545 16.9106 11.9108C16.7543 12.0671 16.6665 12.2791 16.6665 12.5001V15.8334C16.6665 16.0544 16.5787 16.2664 16.4224 16.4227C16.2661 16.579 16.0542 16.6667 15.8332 16.6667H4.1665C3.94549 16.6667 3.73353 16.579 3.57725 16.4227C3.42097 16.2664 3.33317 16.0544 3.33317 15.8334V12.5001C3.33317 12.2791 3.24537 12.0671 3.08909 11.9108C2.93281 11.7545 2.72085 11.6667 2.49984 11.6667C2.27882 11.6667 2.06686 11.7545 1.91058 11.9108C1.7543 12.0671 1.6665 12.2791 1.6665 12.5001V15.8334C1.6665 16.4965 1.9299 17.1323 2.39874 17.6012C2.86758 18.07 3.50346 18.3334 4.1665 18.3334H15.8332C16.4962 18.3334 17.1321 18.07 17.6009 17.6012C18.0698 17.1323 18.3332 16.4965 18.3332 15.8334V12.5001C18.3332 12.2791 18.2454 12.0671 18.0891 11.9108C17.9328 11.7545 17.7208 11.6667 17.4998 11.6667ZM9.40817 13.0917C9.48742 13.1676 9.58088 13.2271 9.68317 13.2667C9.78292 13.3108 9.89078 13.3336 9.99984 13.3336C10.1089 13.3336 10.2168 13.3108 10.3165 13.2667C10.4188 13.2271 10.5123 13.1676 10.5915 13.0917L13.9248 9.75841C14.0818 9.60149 14.1699 9.38867 14.1699 9.16675C14.1699 8.94483 14.0818 8.732 13.9248 8.57508C13.7679 8.41816 13.5551 8.33001 13.3332 8.33001C13.1113 8.33001 12.8984 8.41816 12.7415 8.57508L10.8332 10.4917V2.50008C10.8332 2.27907 10.7454 2.06711 10.5891 1.91083C10.4328 1.75455 10.2209 1.66675 9.99984 1.66675C9.77882 1.66675 9.56686 1.75455 9.41058 1.91083C9.2543 2.06711 9.1665 2.27907 9.1665 2.50008V10.4917L7.25817 8.57508C7.18047 8.49738 7.08823 8.43575 6.98671 8.3937C6.88519 8.35165 6.77639 8.33001 6.6665 8.33001C6.55662 8.33001 6.44781 8.35165 6.3463 8.3937C6.24478 8.43575 6.15254 8.49738 6.07484 8.57508C5.99714 8.65278 5.9355 8.74502 5.89345 8.84654C5.8514 8.94806 5.82976 9.05687 5.82976 9.16675C5.82976 9.27663 5.8514 9.38544 5.89345 9.48696C5.9355 9.58847 5.99714 9.68072 6.07484 9.75841L9.40817 13.0917Z" fill="#8A8A8A"/>
</svg>
