<svg width="20" height="20" viewBox="0 0 20 20" fill="none" xmlns="http://www.w3.org/2000/svg">
<path d="M5.5 15V14.5H5H4.375C2.92526 14.5 1.75 13.3247 1.75 11.875V5.625C1.75 4.17525 2.92525 3 4.375 3H15.625C17.0747 3 18.25 4.17526 18.25 5.625V11.875C18.25 13.3247 17.0747 14.5 15.625 14.5H10.8598H10.672L10.5306 14.6237L6.70241 17.9733L6.70239 17.9734C6.55637 18.1011 6.39307 18.2539 6.23239 18.4043C6.16749 18.465 6.10301 18.5253 6.04027 18.5835C5.84485 18.7645 5.66159 18.9287 5.5 19.0552V15ZM5.18008 19.2608C5.18009 19.2608 5.18056 19.2607 5.18147 19.2604L5.18008 19.2608Z" stroke="#B8B6B6"/>
</svg>
