<svg width="100" height="100" viewBox="0 0 100 100" fill="none" xmlns="http://www.w3.org/2000/svg">
<g clip-path="url(#clip0_4018_10472)">
<rect width="100" height="100" fill="white"/>
<rect width="100" height="100" fill="#525DF9"/>
<path d="M50.9 75C43.2333 75 38.0667 73.6667 35.4 71C34.2667 69.8667 33.5667 68.6 33.3 67.2C33.0333 65.7333 32.9 63.5 32.9 60.5H34.9C35.5 63.8333 36.9333 66.4333 39.2 68.3C41.5333 70.1 44.7667 71 48.9 71C52.5667 71 55.3 70.3667 57.1 69.1C58.9667 67.8333 59.9 66.1333 59.9 64C59.9 62.0667 59.1667 60.4 57.7 59C56.3 57.6 54.0333 56.2667 50.9 55L44.9 52.5C40.9 50.9 37.9 49.0333 35.9 46.9C33.9 44.7667 32.9 42.1333 32.9 39C32.9 34.9333 34.4333 31.7667 37.5 29.5C40.5667 27.1667 44.5333 26 49.4 26C56.7333 26 61.7333 27.3333 64.4 30C65.5333 31.1333 66.2333 32.4 66.5 33.8C66.7667 35.2 66.9 37.4333 66.9 40.5H64.9C64.3667 37.1667 62.9667 34.6 60.7 32.8C58.4333 30.9333 55.3333 30 51.4 30C48.2667 30 45.8 30.6667 44 32C42.2667 33.2667 41.4 34.9333 41.4 37C41.4 40.4667 44.0667 43.3 49.4 45.5L55.4 48C59.9333 49.8667 63.2333 51.8667 65.3 54C67.3667 56.0667 68.4 58.7333 68.4 62C68.4 66.0667 66.7667 69.2667 63.5 71.6C60.2333 73.8667 56.0333 75 50.9 75Z" fill="white"/>
</g>
<defs>
<clipPath id="clip0_4018_10472">
<rect width="100" height="100" fill="white"/>
</clipPath>
</defs>
</svg>
